<svg xmlns="http://www.w3.org/2000/svg" viewBox="0 0 120 120">
  <defs>
    <radialGradient id="bg" cx="50%" cy="35%" r="70%"><stop offset="0" stop-color="#d9f6ff"/><stop offset="1" stop-color="#3b8fd6"/></radialGradient>
    <clipPath id="c"><circle cx="60" cy="60" r="60"/></clipPath>
  </defs>
  <circle cx="60" cy="60" r="60" fill="url(#bg)"/>
  <g clip-path="url(#c)">
    <g opacity="0.18" fill="#fff"><path d="M60 40 L10 -10 L30 -10 Z"/><path d="M60 40 L110 -10 L90 -10 Z"/><path d="M60 40 L-10 30 L-10 50 Z"/><path d="M60 40 L130 30 L130 50 Z"/></g>

    <path d="M30 52 Q28 30 60 26 Q92 30 90 52 L96 112 L24 112 Z" fill="#e8f7ff" stroke="#1a1a2e" stroke-width="2.5" stroke-linejoin="round"/>
    <path d="M14 124 Q18 92 60 88 Q102 92 106 124 Z" fill="#3b6fb6" stroke="#1a1a2e" stroke-width="2.5" stroke-linejoin="round"/>
    <path d="M44 90 L60 104 L76 90" fill="none" stroke="#e8f7ff" stroke-width="5"/>
    <path d="M60 98 l5 5 -5 5 -5 -5z" fill="#bff0ff" stroke="#1a1a2e" stroke-width="2.5" stroke-linejoin="round"/>
    <rect x="52" y="74" width="16" height="16" fill="#f6cfaa" stroke="#1a1a2e" stroke-width="2.5" stroke-linejoin="round"/>
    <ellipse cx="60" cy="58" rx="21" ry="24" fill="#f6cfaa" stroke="#1a1a2e" stroke-width="2.5" stroke-linejoin="round"/>
    <path d="M38 56 Q40 32 60 32 Q80 32 82 56 Q74 44 66 46 Q60 40 52 46 Q44 44 38 56 Z" fill="#e8f7ff" stroke="#1a1a2e" stroke-width="2.5" stroke-linejoin="round"/>
    <ellipse cx="51" cy="61" rx="4" ry="5" fill="#fff" stroke="#1a1a2e" stroke-width="2.5" stroke-linejoin="round"/><ellipse cx="69" cy="61" rx="4" ry="5" fill="#fff" stroke="#1a1a2e" stroke-width="2.5" stroke-linejoin="round"/>
    <circle cx="51.5" cy="62" r="2.6" fill="#7b4fd6"/><circle cx="69.5" cy="62" r="2.6" fill="#7b4fd6"/>
    <circle cx="50.5" cy="60.5" r="1" fill="#fff"/><circle cx="68.5" cy="60.5" r="1" fill="#fff"/>
    <ellipse cx="45" cy="69" rx="3.5" ry="2" fill="#ff9ab3" opacity="0.7"/><ellipse cx="75" cy="69" rx="3.5" ry="2" fill="#ff9ab3" opacity="0.7"/>
    <path d="M55 72 Q60 76 65 72" fill="none" stroke="#1a1a2e" stroke-width="2" stroke-linecap="round"/>
    <path d="M44 36 L48 22 L53 33 L60 14 L67 33 L72 22 L76 36 Z" fill="#bff0ff" stroke="#1a1a2e" stroke-width="2.5" stroke-linejoin="round"/>
    <path d="M60 18 L60 30" stroke="#ffffff" stroke-width="2"/>
    <g fill="#ffffff" opacity="0.9"><circle cx="20" cy="30" r="2"/><circle cx="98" cy="22" r="2.5"/><circle cx="104" cy="60" r="1.6"/><circle cx="14" cy="70" r="1.8"/></g>
  </g>
</svg>
